<?xml version="1.0" encoding="UTF-8" standalone="no"?>
<svg
   xmlns:dc="http://purl.org/dc/elements/1.1/"
   xmlns:cc="http://creativecommons.org/ns#"
   xmlns:rdf="http://www.w3.org/1999/02/22-rdf-syntax-ns#"
   xmlns:svg="http://www.w3.org/2000/svg"
   xmlns="http://www.w3.org/2000/svg"
   xml:space="preserve"
   style="enable-background:new 0 0 1366 768;"
   viewBox="0 0 1366 768"
   height="768px"
   width="1366px"
   y="0px"
   x="0px"
   id="Calque_1"
   version="1.1"><metadata
   id="metadata9"><rdf:RDF><cc:Work
       rdf:about=""><dc:format>image/svg+xml</dc:format><dc:type
         rdf:resource="http://purl.org/dc/dcmitype/StillImage" /></cc:Work></rdf:RDF></metadata><defs
   id="defs7" />
<path
   id="path2"
   d="M634.8,384.9c0-6.4,1.2-12.4,3.5-17.9c2.4-5.5,5.6-10.4,9.8-14.5c4.2-4.1,9.2-7.3,15-9.7c5.8-2.3,12.3-3.5,19.3-3.5  c6.9,0,13.3,1.2,19.2,3.5c5.9,2.3,10.9,5.5,15.2,9.7c4.2,4.1,7.5,8.9,9.9,14.5c2.4,5.5,3.5,11.5,3.5,17.9c0,6.4-1.2,12.4-3.5,17.9  c-2.4,5.5-5.7,10.4-9.9,14.5c-4.2,4.1-9.3,7.3-15.2,9.7c-5.9,2.3-12.3,3.5-19.2,3.5c-7,0-13.4-1.2-19.3-3.5s-10.9-5.6-15-9.7  c-4.2-4.1-7.5-8.9-9.8-14.5C636,397.2,634.8,391.3,634.8,384.9z M658.3,384.9c0,3.4,0.6,6.6,1.9,9.5c1.3,2.9,3.1,5.4,5.3,7.6  c2.2,2.1,4.8,3.8,7.7,5c2.9,1.2,6,1.8,9.3,1.8c3.3,0,6.4-0.6,9.3-1.8c2.9-1.2,5.5-2.8,7.8-5c2.2-2.1,4-4.7,5.3-7.6  c1.3-2.9,1.9-6.1,1.9-9.5s-0.6-6.6-1.9-9.5c-1.3-2.9-3.1-5.4-5.3-7.6c-2.3-2.1-4.8-3.8-7.8-5c-2.9-1.2-6-1.8-9.3-1.8  c-3.3,0-6.4,0.6-9.3,1.8c-2.9,1.2-5.5,2.8-7.7,5c-2.2,2.1-4,4.7-5.3,7.6C658.9,378.3,658.3,381.4,658.3,384.9z" />
</svg>