<?xml version="1.0" encoding="UTF-8" standalone="no"?>
<svg
   xmlns:dc="http://purl.org/dc/elements/1.1/"
   xmlns:cc="http://creativecommons.org/ns#"
   xmlns:rdf="http://www.w3.org/1999/02/22-rdf-syntax-ns#"
   xmlns:svg="http://www.w3.org/2000/svg"
   xmlns="http://www.w3.org/2000/svg"
   xml:space="preserve"
   style="enable-background:new 0 0 1366 768;"
   viewBox="0 0 1366 768"
   height="768px"
   width="1366px"
   y="0px"
   x="0px"
   id="Calque_1"
   version="1.1"><metadata
   id="metadata9"><rdf:RDF><cc:Work
       rdf:about=""><dc:format>image/svg+xml</dc:format><dc:type
         rdf:resource="http://purl.org/dc/dcmitype/StillImage" /></cc:Work></rdf:RDF></metadata><defs
   id="defs7" />
<path
   id="path2"
   d="M674.1,392.8c-6.6-1.5-11.5-4.5-14.9-8.8c-3.4-4.3-5-10-5-17c0-3.9,0.6-7.5,1.9-10.9c1.3-3.4,3.1-6.4,5.6-9  c2.5-2.6,5.6-4.6,9.4-6.1c3.8-1.5,8.3-2.2,13.4-2.2h37.1v91.6h-23.8v-35.2l-22.7,35.2h-29.7L674.1,392.8z M697.6,357.1h-4.5  c-4.7,0-8.3,1-10.8,2.9c-2.5,1.9-3.8,4.7-3.8,8.4c0,3.6,1.3,6.4,3.8,8.4c2.5,1.9,6.1,2.9,10.8,2.9h4.5V357.1z" />
</svg>